#Comment line ignore any data following # character 
#Hierarchical Translation and Rotation (.htr) file 
[Header]	
#Header keywords are followed by a single value 
FileType HTR		#Single word string
DataType HTRS		#Translation followed by rotation and scale data
FileVersion 1		#integer
NumSegments 84		#integer
NumFrames 2		#integer
DataFrameRate 30		#integer, data frame rate in this file
EulerRotationOrder ZYX
CalibrationUnits mm
RotationUnits Degrees
GlobalAxisofGravity Y
BoneLengthAxis Y
ScaleFactor 1.00
[SegmentNames&Hierarchy]
#CHILD	PARENT
MASTER GLOBAL
root MASTER
chest root
L_mid_tent01 root
R_mid_tent01 root
spine01 root
Bip01_Neck chest
L_humerus chest
R_humerus chest
weapon_bone chest
Bip01_Head Bip01_Neck
eye_left_bone Bip01_Head
eye_right_bone Bip01_Head
L_forearm L_humerus
L_front_hand L_forearm
L_weapon_bone L_forearm
L_front_hand01_01 L_front_hand
L_front_hand02_01 L_front_hand
L_front_hand03_01 L_front_hand
L_front_hand01_02 L_front_hand01_01
L_front_hand02_02 L_front_hand02_01
L_front_hand03_02 L_front_hand03_01
R_forearm R_humerus
R_front_hand R_forearm
R_weapon_bone R_forearm
R_front_hand01_01 R_front_hand
R_front_hand02_01 R_front_hand
R_front_hand03_01 R_front_hand
R_front_hand01_02 R_front_hand01_01
R_front_hand02_02 R_front_hand02_01
R_front_hand03_02 R_front_hand03_01
null_rope01_connect L_mid_tent01
Rope1_Seg01 null_rope01_connect
Rope1_Seg02 Rope1_Seg01
Rope1_Seg03 Rope1_Seg02
Rope1_Seg04 Rope1_Seg03
Rope1_Seg05 Rope1_Seg04
Rope1_Seg06 Rope1_Seg05
Rope1_Seg07 Rope1_Seg06
Rope1_Seg09 Rope1_Seg07
L_mid_hand01 Rope1_Seg09
L_mid_hand02 Rope1_Seg09
L_mid_hand03 Rope1_Seg09
null_rope02_connect R_mid_tent01
Rope2_Seg01 null_rope02_connect
Rope2_Seg02 Rope2_Seg01
Rope2_Seg03 Rope2_Seg02
Rope2_Seg04 Rope2_Seg03
Rope2_Seg05 Rope2_Seg04
Rope2_Seg06 Rope2_Seg05
Rope2_Seg07 Rope2_Seg06
Rope2_Seg09 Rope2_Seg07
R_mid_hand01 Rope2_Seg09
R_mid_hand02 Rope2_Seg09
R_mid_hand03 Rope2_Seg09
spine02 spine01
spine03 spine02
pelvis spine03
null_rope03_connect pelvis
null_rope04_connect pelvis
Rope3_Seg01 null_rope03_connect
Rope3_Seg02 Rope3_Seg01
Rope3_Seg03 Rope3_Seg02
Rope3_Seg04 Rope3_Seg03
Rope3_Seg05 Rope3_Seg04
Rope3_Seg06 Rope3_Seg05
Rope3_Seg07 Rope3_Seg06
Rope3_Seg08 Rope3_Seg07
Rope3_Seg09 Rope3_Seg08
R_rear_hand01 Rope3_Seg09
R_rear_hand02 Rope3_Seg09
R_rear_hand03 Rope3_Seg09
Rope4_Seg01 null_rope04_connect
Rope4_Seg02 Rope4_Seg01
Rope4_Seg03 Rope4_Seg02
Rope4_Seg04 Rope4_Seg03
Rope4_Seg05 Rope4_Seg04
Rope4_Seg06 Rope4_Seg05
Rope4_Seg07 Rope4_Seg06
Rope4_Seg08 Rope4_Seg07
Rope4_Seg09 Rope4_Seg08
L_rear_hand01 Rope4_Seg09
L_rear_hand02 Rope4_Seg09
L_rear_hand03 Rope4_Seg09
[BasePosition]
#SegmentName Tx, Ty, Tz, Rx, Ry, Rz, BoneLength
MASTER 0.000000 0.000000 0.000000 -90.000000 0.000000 0.000000 10.000000 
root 0.000000 0.000000 0.000000 0.000000 0.000000 0.000000 10.000000 
chest 0.000000 0.000000 0.000000 0.000000 0.000000 0.000000 10.000000 
L_mid_tent01 0.000000 0.000000 0.000000 0.000000 0.000000 0.000000 10.000000 
R_mid_tent01 0.000000 0.000000 0.000000 0.000000 0.000000 0.000000 10.000000 
spine01 0.000000 0.000000 0.000000 0.000000 0.000000 0.000000 10.000000 
Bip01_Neck 0.000000 0.000000 0.000000 0.000000 0.000000 0.000000 10.000000 
L_humerus 0.000000 0.000000 0.000000 0.000000 0.000000 0.000000 10.000000 
R_humerus 0.000000 0.000000 0.000000 0.000000 0.000000 0.000000 10.000000 
weapon_bone 0.000000 0.000000 0.000000 0.000000 0.000000 0.000000 10.000000 
Bip01_Head 0.000000 0.000000 0.000000 0.000000 0.000000 0.000000 10.000000 
eye_left_bone 0.000000 0.000000 0.000000 0.000000 0.000000 0.000000 10.000000 
eye_right_bone 0.000000 0.000000 0.000000 0.000000 0.000000 0.000000 10.000000 
L_forearm 0.000000 0.000000 0.000000 0.000000 0.000000 0.000000 10.000000 
L_front_hand 0.000000 0.000000 0.000000 0.000000 0.000000 0.000000 10.000000 
L_weapon_bone 0.000000 0.000000 0.000000 0.000000 0.000000 0.000000 10.000000 
L_front_hand01_01 0.000000 0.000000 0.000000 0.000000 0.000000 0.000000 10.000000 
L_front_hand02_01 0.000000 0.000000 0.000000 0.000000 0.000000 0.000000 10.000000 
L_front_hand03_01 0.000000 0.000000 0.000000 0.000000 0.000000 0.000000 10.000000 
L_front_hand01_02 0.000000 0.000000 0.000000 0.000000 0.000000 0.000000 10.000000 
L_front_hand02_02 0.000000 0.000000 0.000000 0.000000 0.000000 0.000000 10.000000 
L_front_hand03_02 0.000000 0.000000 0.000000 0.000000 0.000000 0.000000 10.000000 
R_forearm 0.000000 0.000000 0.000000 0.000000 0.000000 0.000000 10.000000 
R_front_hand 0.000000 0.000000 0.000000 0.000000 0.000000 0.000000 10.000000 
R_weapon_bone 0.000000 0.000000 0.000000 0.000000 0.000000 0.000000 10.000000 
R_front_hand01_01 0.000000 0.000000 0.000000 0.000000 0.000000 0.000000 10.000000 
R_front_hand02_01 0.000000 0.000000 0.000000 0.000000 0.000000 0.000000 10.000000 
R_front_hand03_01 0.000000 0.000000 0.000000 0.000000 0.000000 0.000000 10.000000 
R_front_hand01_02 0.000000 0.000000 0.000000 0.000000 0.000000 0.000000 10.000000 
R_front_hand02_02 0.000000 0.000000 0.000000 0.000000 0.000000 0.000000 10.000000 
R_front_hand03_02 0.000000 0.000000 0.000000 0.000000 0.000000 0.000000 10.000000 
null_rope01_connect 0.000000 0.000000 0.000000 0.000000 0.000000 0.000000 10.000000 
Rope1_Seg01 0.000000 0.000000 0.000000 0.000000 0.000000 0.000000 10.000000 
Rope1_Seg02 0.000000 0.000000 0.000000 0.000000 0.000000 0.000000 10.000000 
Rope1_Seg03 0.000000 0.000000 0.000000 0.000000 0.000000 0.000000 10.000000 
Rope1_Seg04 0.000000 0.000000 0.000000 0.000000 0.000000 0.000000 10.000000 
Rope1_Seg05 0.000000 0.000000 0.000000 0.000000 0.000000 0.000000 10.000000 
Rope1_Seg06 0.000000 0.000000 0.000000 0.000000 0.000000 0.000000 10.000000 
Rope1_Seg07 0.000000 0.000000 0.000000 0.000000 0.000000 0.000000 10.000000 
Rope1_Seg09 0.000000 0.000000 0.000000 0.000000 0.000000 0.000000 10.000000 
L_mid_hand01 0.000000 0.000000 0.000000 0.000000 0.000000 0.000000 10.000000 
L_mid_hand02 0.000000 0.000000 0.000000 0.000000 0.000000 0.000000 10.000000 
L_mid_hand03 0.000000 0.000000 0.000000 0.000000 0.000000 0.000000 10.000000 
null_rope02_connect 0.000000 0.000000 0.000000 0.000000 0.000000 0.000000 10.000000 
Rope2_Seg01 0.000000 0.000000 0.000000 0.000000 0.000000 0.000000 10.000000 
Rope2_Seg02 0.000000 0.000000 0.000000 0.000000 0.000000 0.000000 10.000000 
Rope2_Seg03 0.000000 0.000000 0.000000 0.000000 0.000000 0.000000 10.000000 
Rope2_Seg04 0.000000 0.000000 0.000000 0.000000 0.000000 0.000000 10.000000 
Rope2_Seg05 0.000000 0.000000 0.000000 0.000000 0.000000 0.000000 10.000000 
Rope2_Seg06 0.000000 0.000000 0.000000 0.000000 0.000000 0.000000 10.000000 
Rope2_Seg07 0.000000 0.000000 0.000000 0.000000 0.000000 0.000000 10.000000 
Rope2_Seg09 0.000000 0.000000 0.000000 0.000000 0.000000 0.000000 10.000000 
R_mid_hand01 0.000000 0.000000 0.000000 0.000000 0.000000 0.000000 10.000000 
R_mid_hand02 0.000000 0.000000 0.000000 0.000000 0.000000 0.000000 10.000000 
R_mid_hand03 0.000000 0.000000 0.000000 0.000000 0.000000 0.000000 10.000000 
spine02 0.000000 0.000000 0.000000 0.000000 0.000000 0.000000 10.000000 
spine03 0.000000 0.000000 0.000000 0.000000 0.000000 0.000000 10.000000 
pelvis 0.000000 0.000000 0.000000 0.000000 0.000000 0.000000 10.000000 
null_rope03_connect 0.000000 0.000000 0.000000 0.000000 0.000000 0.000000 10.000000 
null_rope04_connect 0.000000 0.000000 0.000000 0.000000 0.000000 0.000000 10.000000 
Rope3_Seg01 0.000000 0.000000 0.000000 0.000000 0.000000 0.000000 10.000000 
Rope3_Seg02 0.000000 0.000000 0.000000 0.000000 0.000000 0.000000 10.000000 
Rope3_Seg03 0.000000 0.000000 0.000000 0.000000 0.000000 0.000000 10.000000 
Rope3_Seg04 0.000000 0.000000 0.000000 0.000000 0.000000 0.000000 10.000000 
Rope3_Seg05 0.000000 0.000000 0.000000 0.000000 0.000000 0.000000 10.000000 
Rope3_Seg06 0.000000 0.000000 0.000000 0.000000 0.000000 0.000000 10.000000 
Rope3_Seg07 0.000000 0.000000 0.000000 0.000000 0.000000 0.000000 10.000000 
Rope3_Seg08 0.000000 0.000000 0.000000 0.000000 0.000000 0.000000 10.000000 
Rope3_Seg09 0.000000 0.000000 0.000000 0.000000 0.000000 0.000000 10.000000 
R_rear_hand01 0.000000 0.000000 0.000000 0.000000 0.000000 0.000000 10.000000 
R_rear_hand02 0.000000 0.000000 0.000000 0.000000 0.000000 0.000000 10.000000 
R_rear_hand03 0.000000 0.000000 0.000000 0.000000 0.000000 0.000000 10.000000 
Rope4_Seg01 0.000000 0.000000 0.000000 0.000000 0.000000 0.000000 10.000000 
Rope4_Seg02 0.000000 0.000000 0.000000 0.000000 0.000000 0.000000 10.000000 
Rope4_Seg03 0.000000 0.000000 0.000000 0.000000 0.000000 0.000000 10.000000 
Rope4_Seg04 0.000000 0.000000 0.000000 0.000000 0.000000 0.000000 10.000000 
Rope4_Seg05 0.000000 0.000000 0.000000 0.000000 0.000000 0.000000 10.000000 
Rope4_Seg06 0.000000 0.000000 0.000000 0.000000 0.000000 0.000000 10.000000 
Rope4_Seg07 0.000000 0.000000 0.000000 0.000000 0.000000 0.000000 10.000000 
Rope4_Seg08 0.000000 0.000000 0.000000 0.000000 0.000000 0.000000 10.000000 
Rope4_Seg09 0.000000 0.000000 0.000000 0.000000 0.000000 0.000000 10.000000 
L_rear_hand01 0.000000 0.000000 0.000000 0.000000 0.000000 0.000000 10.000000 
L_rear_hand02 0.000000 0.000000 0.000000 0.000000 0.000000 0.000000 10.000000 
L_rear_hand03 0.000000 0.000000 0.000000 0.000000 0.000000 0.000000 10.000000 
#Beginning of Data. Separated by tabs
#Fr	Tx	Ty	Tz	Rx	Ry	Rz	SF
[MASTER]
22 0.000779 -7250.871094 -231.914108 0.001660 0.001660 0.001660 7254.579102
23 0.000805 -7502.171875 -201.413589 0.001660 0.001660 0.001660 7504.875488
[root]
22 -31.084902 -56.600338 1501.795288 -101.275047 -45.845711 -87.151932 1503.182983
23 -30.018143 -56.647133 1501.662109 -101.336227 -44.002720 -87.429222 1503.030029
[chest]
22 -84.512650 -34.090519 0.000000 -8.177809 -10.431982 173.561981 91.129311
23 -84.512650 -34.090519 0.000000 -6.390254 -6.923495 175.559113 91.129311
[L_mid_tent01]
22 27.299175 22.179106 -249.918701 8.310287 36.734116 89.951180 252.381699
23 27.299177 22.179106 -249.918701 7.612700 36.691803 88.606483 252.381699
[R_mid_tent01]
22 23.228794 24.509907 226.238495 -173.079926 -70.584396 66.227104 228.744751
23 23.228794 24.509907 226.238495 168.036240 -62.470222 84.271065 228.744751
[spine01]
22 -0.361383 -0.195265 0.000000 0.001989 0.001246 25.871990 0.410763
23 -0.361383 -0.195265 0.000000 0.001983 0.001256 25.277523 0.410763
[Bip01_Neck]
22 165.484543 71.581718 0.000119 176.643677 -1.657967 43.431911 180.302734
23 165.484543 71.581718 0.000119 176.643677 -1.657967 43.431911 180.302734
[L_humerus]
22 -13.983130 -135.272980 -120.471481 158.101257 67.738686 -109.536217 181.680161
23 -13.983130 -135.272980 -120.471481 157.885208 67.224167 -110.005867 181.680161
[R_humerus]
22 -13.983309 -135.273102 125.287651 -171.949585 -65.925659 -92.592674 184.909012
23 -13.983309 -135.273102 125.287651 -171.496948 -64.634422 -93.254585 184.909012
[weapon_bone]
22 235.964890 -300.705902 0.000000 0.000000 -89.951546 -128.212341 382.234833
23 235.964890 -300.705902 0.000000 0.000000 -89.951546 -128.212341 382.234833
[Bip01_Head]
22 213.334946 186.019928 7.844841 14.285716 3.902652 -43.878395 283.154999
23 213.336166 186.016769 7.885636 11.580036 3.582637 -43.886063 283.154968
[eye_left_bone]
22 -24.626970 125.451866 -64.772606 0.000000 -90.000000 -99.840431 143.318359
23 -24.626970 125.451866 -64.772606 0.000000 -90.000000 -99.840431 143.318359
[eye_right_bone]
22 -24.626970 125.451866 64.327362 0.000000 -89.965736 80.156380 143.117676
23 -24.626970 125.451866 64.327362 0.000000 -89.965736 80.156380 143.117676
[L_forearm]
22 322.776093 0.000000 -0.000119 0.000415 0.002310 -69.619476 322.776093
23 322.776093 0.000000 -0.000119 0.000242 0.002335 -78.180321 322.776093
[L_front_hand]
22 241.149185 -0.042021 -3.300071 131.348038 -1.835546 -27.424875 241.171753
23 241.149185 -0.042021 -3.300071 -162.461960 -1.835374 -27.423054 241.171753
[L_weapon_bone]
22 156.183838 0.000000 0.000000 0.000014 0.000007 0.000001 156.183838
23 156.183838 0.000000 0.000000 0.000014 0.000007 0.000001 156.183838
[L_front_hand01_01]
22 86.095154 20.947098 -0.655860 -0.351864 -0.488251 73.756912 88.609184
23 86.095154 20.947098 -0.655860 -0.359433 -0.482613 74.612556 88.609184
[L_front_hand02_01]
22 86.935165 -11.437475 24.513514 151.937759 -59.151104 -58.507717 91.046425
23 86.935165 -11.437475 24.513514 153.214294 -59.547066 -59.995945 91.046425
[L_front_hand03_01]
22 86.637497 -14.123976 -20.424902 -151.626480 57.374607 -59.999687 90.126129
23 86.637497 -14.123976 -20.424902 -152.821930 57.770218 -61.413536 90.126129
[L_front_hand01_02]
22 71.020905 -0.000179 0.000030 0.000099 -0.002345 -94.810440 71.020905
23 71.020905 -0.000179 0.000030 0.000224 -0.002337 -100.950447 71.020905
[L_front_hand02_02]
22 71.020927 -0.000119 0.000060 0.000099 -0.002345 -94.810440 71.020927
23 71.020927 -0.000119 0.000060 0.000224 -0.002337 -100.950447 71.020927
[L_front_hand03_02]
22 71.020905 -0.000060 0.000060 0.000099 -0.002345 -94.810440 71.020905
23 71.020905 -0.000060 0.000060 0.000224 -0.002337 -100.950447 71.020905
[R_forearm]
22 322.776428 -0.000060 0.000030 0.208403 -0.054064 -76.464104 322.776428
23 322.776428 -0.000060 0.000030 0.208042 -0.033053 -82.097115 322.776428
[R_front_hand]
22 238.847015 -0.006795 2.210259 3.241214 -10.645594 -26.312695 238.857239
23 238.847015 -0.006795 2.210259 -65.051292 -10.643720 -26.314186 238.857239
[R_weapon_bone]
22 155.664093 0.002503 -0.000030 0.003487 0.001180 -90.988930 155.664078
23 155.664093 0.002503 -0.000030 0.003487 0.001180 -90.988930 155.664078
[R_front_hand01_01]
22 87.624611 14.231146 22.918642 -150.496140 -58.669407 56.933025 91.683487
23 87.624611 14.231146 22.918642 -152.600021 -59.355370 59.386269 91.683487
[R_front_hand02_01]
22 89.356956 14.367283 -19.491137 150.715454 57.032940 59.152596 92.579636
23 89.356956 14.367283 -19.491137 152.692337 57.712933 61.495327 92.579636
[R_front_hand03_01]
22 87.286232 -22.307278 -0.143439 0.141009 -0.428867 -73.004997 90.091743
23 87.286232 -22.307278 -0.143439 0.153294 -0.428015 -74.439148 90.091743
[R_front_hand01_02]
22 71.020905 0.000060 0.000119 0.002345 -0.000098 94.805931 71.020905
23 71.020905 0.000060 0.000119 0.002337 -0.000224 100.952568 71.020905
[R_front_hand02_02]
22 71.020844 -0.000030 -0.000119 0.002345 -0.000098 94.805931 71.020836
23 71.020844 -0.000030 -0.000119 0.002337 -0.000224 100.952568 71.020836
[R_front_hand03_02]
22 71.020905 0.000000 0.000030 0.002345 -0.000098 94.805931 71.020905
23 71.020905 0.000000 0.000030 0.002337 -0.000224 100.952568 71.020905
[null_rope01_connect]
22 328.732483 0.000000 -0.000238 -124.453850 -43.818520 174.746384 328.732483
23 328.732483 0.000000 -0.000238 -126.047470 -43.669136 175.589523 328.732483
[Rope1_Seg01]
22 -0.000029 -0.000010 0.000153 105.378166 -14.279096 179.443192 0.000156
23 -0.000030 -0.000008 0.000153 106.316643 -18.357952 174.931961 0.000156
[Rope1_Seg02]
22 139.999863 -0.000179 0.000000 10.053771 -7.744371 -19.928736 139.999863
23 139.999863 -0.000179 0.000000 7.094882 -5.937830 -19.569418 139.999863
[Rope1_Seg03]
22 139.999924 0.000060 -0.000060 12.715812 -5.929326 -19.595867 139.999924
23 139.999924 0.000060 -0.000060 11.890014 -4.377419 -22.322119 139.999924
[Rope1_Seg04]
22 139.999924 -0.000060 -0.000119 10.107877 -9.613055 -8.703856 139.999924
23 139.999924 -0.000060 -0.000119 11.493271 -8.221134 -12.017519 139.999924
[Rope1_Seg05]
22 139.999832 0.000119 -0.000060 2.691284 -16.025011 6.871518 139.999832
23 139.999832 0.000119 -0.000060 2.678680 -16.939199 7.897565 139.999832
[Rope1_Seg06]
22 139.999954 0.000119 -0.000060 0.447867 -11.442054 6.073403 139.999954
23 139.999954 0.000119 -0.000060 -0.002752 -13.277811 8.344323 139.999954
[Rope1_Seg07]
22 139.999985 0.000060 0.000000 0.089359 -6.360321 2.523097 139.999985
23 139.999985 0.000060 0.000000 -0.128561 -7.262788 3.300819 139.999985
[Rope1_Seg09]
22 121.602913 0.000119 -0.000089 -89.793175 -1.359789 0.847147 121.602913
23 121.602913 0.000119 -0.000089 -89.793175 -1.359789 0.847147 121.602913
[L_mid_hand01]
22 103.859421 1.038730 8.195221 130.544373 -67.584534 -38.866943 104.187431
23 103.859421 1.038730 8.195221 130.544373 -67.584534 -38.866943 104.187431
[L_mid_hand02]
22 105.572853 -4.139662 -10.864139 -168.923172 43.409309 -73.498886 106.211075
23 105.572853 -4.139662 -10.864139 -168.923172 43.409309 -73.498886 106.211075
[L_mid_hand03]
22 104.641464 17.579376 -3.913581 -6.012627 17.808174 74.893669 106.179977
23 104.641464 17.579376 -3.913581 -6.012627 17.808174 74.893669 106.179977
[null_rope02_connect]
22 328.732849 0.000179 -0.000119 -115.497131 27.479658 2.650629 328.732849
23 328.732849 0.000179 -0.000119 -113.565987 35.163544 12.127325 328.732849
[Rope2_Seg01]
22 0.000095 0.000486 0.000000 -51.086529 15.955713 -29.233244 0.000496
23 0.000095 0.000504 0.000000 -14.530842 2.211622 -28.468901 0.000513
[Rope2_Seg02]
22 139.999741 -0.000060 -0.000119 -19.651192 -6.965490 12.723611 139.999756
23 139.999741 -0.000060 -0.000119 -28.627296 3.129463 14.602849 139.999756
[Rope2_Seg03]
22 140.000107 0.000030 0.000000 -7.513587 -13.366889 11.903543 140.000107
23 140.000107 0.000030 0.000000 -17.502258 -5.548107 17.694321 140.000107
[Rope2_Seg04]
22 139.999802 0.000000 -0.000060 -2.550068 -14.397326 8.903111 139.999802
23 139.999802 0.000000 -0.000060 -7.239150 -10.251630 13.670655 139.999802
[Rope2_Seg05]
22 139.999985 -0.000060 0.000119 -2.591331 -8.549921 8.785546 139.999985
23 139.999985 -0.000060 0.000119 -4.197197 -6.764520 11.277764 139.999985
[Rope2_Seg06]
22 139.999893 -0.000030 -0.000119 -2.170863 -6.119880 10.196507 139.999893
23 139.999893 -0.000030 -0.000119 -2.928061 -5.209980 11.733469 139.999893
[Rope2_Seg07]
22 139.999893 0.000060 -0.000060 -0.723053 -5.778214 7.173765 139.999893
23 139.999893 0.000060 -0.000060 -1.044287 -4.804685 8.121061 139.999893
[Rope2_Seg09]
22 121.338966 0.000089 -0.000060 33.793236 -1.359788 -0.847141 121.338966
23 121.338966 0.000089 -0.000060 33.793236 -1.359788 -0.847141 121.338966
[R_mid_hand01]
22 104.680779 11.144459 -10.335981 -16.212063 45.237247 70.462852 105.778534
23 104.680779 11.144459 -10.335981 -16.212063 45.237247 70.462852 105.778534
[R_mid_hand02]
22 104.070427 2.443552 8.231699 49.067368 -67.749771 39.286453 104.424065
23 104.070427 2.443552 8.231699 49.067387 -67.749794 39.286469 104.424065
[R_mid_hand03]
22 106.028137 -11.221827 -5.996406 -177.101105 15.551026 -76.585571 106.788818
23 106.028137 -11.221827 -5.996406 -177.101105 15.551026 -76.585571 106.788818
[spine02]
22 129.756927 0.001550 0.000119 0.412133 -4.039312 -13.694108 129.756927
23 129.756927 0.001550 0.000119 0.401140 -4.040514 -13.521799 129.756927
[spine03]
22 78.613472 0.081711 -4.899049 1.930786 3.814420 16.969130 78.766014
23 78.613441 0.081722 -4.899051 1.923006 3.817992 16.848816 78.765984
[pelvis]
22 169.435242 0.051022 0.000000 -0.062016 -0.179698 15.075162 169.435257
23 169.435242 0.051022 0.000000 -0.061675 -0.179815 14.858204 169.435257
[null_rope03_connect]
22 -1.257226 -2.466202 137.391083 -146.219589 -81.746696 -121.933723 137.418976
23 -1.257226 -2.466202 137.391083 -146.818237 -81.450172 -122.426483 137.418976
[null_rope04_connect]
22 -1.259640 -2.480268 -137.844437 -146.219589 -81.746696 -121.933723 137.872513
23 -1.259640 -2.480268 -137.844437 -146.818237 -81.450172 -122.426483 137.872513
[Rope3_Seg01]
22 -0.000019 0.000448 -0.000038 161.700134 -52.342091 -13.068064 0.000450
23 -0.000019 0.000471 -0.000033 175.524963 -50.382599 -22.885321 0.000473
[Rope3_Seg02]
22 139.999924 -0.000119 0.000060 -15.282519 1.517533 -14.989627 139.999924
23 139.999924 -0.000119 0.000060 -13.977721 3.394296 -13.699014 139.999924
[Rope3_Seg03]
22 139.999924 -0.000119 0.000119 -21.754917 6.016941 -10.652048 139.999924
23 139.999924 -0.000119 0.000119 -23.667494 9.250344 -12.753225 139.999924
[Rope3_Seg04]
22 139.999924 0.000119 0.000000 -21.006716 7.448211 -7.391807 139.999924
23 139.999924 0.000119 0.000000 -19.941650 11.402851 -7.203225 139.999924
[Rope3_Seg05]
22 139.999924 -0.000238 0.000060 -54.818089 20.574221 -22.168634 139.999924
23 139.999924 -0.000238 0.000060 -46.136841 18.520666 -24.583757 139.999924
[Rope3_Seg06]
22 139.999893 -0.000119 -0.000060 -17.792948 27.552757 2.423862 139.999893
23 139.999893 -0.000119 -0.000060 -25.698917 29.927925 -6.587956 139.999893
[Rope3_Seg07]
22 139.999771 0.000060 -0.000119 -2.352363 11.157825 5.181507 139.999771
23 139.999771 0.000060 -0.000119 -3.701849 13.122177 3.750634 139.999771
[Rope3_Seg08]
22 139.999985 -0.000060 0.000000 -0.397001 5.366182 2.800536 139.999985
23 139.999985 -0.000060 0.000000 -0.749248 6.058695 2.190864 139.999985
[Rope3_Seg09]
22 90.185997 -0.000179 -0.000060 89.793228 -1.359877 -0.847183 90.185997
23 90.185997 -0.000179 -0.000060 89.793228 -1.359877 -0.847183 90.185997
[R_rear_hand01]
22 103.366196 -6.073594 -10.757982 -177.714203 24.565960 -73.910950 104.101845
23 103.366196 -6.073594 -10.757982 -177.714203 24.565960 -73.910950 104.101845
[R_rear_hand02]
22 100.509819 12.039542 -7.992327 -12.874829 36.868488 72.167213 101.543350
23 100.509819 12.039542 -7.992327 -12.874829 36.868488 72.167213 101.543350
[R_rear_hand03]
22 101.539970 5.215704 5.435467 71.484627 -71.816643 21.513817 101.819031
23 101.539970 5.215704 5.435467 71.484581 -71.816628 21.513813 101.819031
[Rope4_Seg01]
22 0.000010 0.000038 -0.000114 62.357605 -26.610882 -131.190536 0.000121
23 0.000010 0.000038 -0.000114 62.233139 -28.861599 -127.796089 0.000121
[Rope4_Seg02]
22 139.999985 0.000060 0.000119 12.689873 -22.660629 3.748809 139.999985
23 139.999985 0.000060 0.000119 16.532640 -28.193359 7.330390 139.999985
[Rope4_Seg03]
22 139.999924 0.000000 -0.000238 47.743706 -31.368649 17.139782 139.999924
23 139.999924 0.000000 -0.000238 47.308479 -32.123013 23.718216 139.999924
[Rope4_Seg04]
22 139.999985 0.000000 0.000119 26.114796 -2.945418 21.787434 139.999985
23 139.999985 0.000000 0.000119 17.506096 -0.603418 17.177959 139.999985
[Rope4_Seg05]
22 139.999802 -0.000060 -0.000119 15.243731 -2.667039 16.661955 139.999802
23 139.999802 -0.000060 -0.000119 8.851982 1.904209 12.112329 139.999802
[Rope4_Seg06]
22 139.999924 0.000000 0.000060 14.937091 -1.968166 23.061935 139.999924
23 139.999924 0.000000 0.000060 11.977914 6.343172 25.729204 139.999924
[Rope4_Seg07]
22 139.999802 0.000000 0.000000 5.666945 3.688662 13.626441 139.999802
23 139.999802 0.000000 0.000000 5.322227 11.705865 25.749378 139.999802
[Rope4_Seg08]
22 139.999924 0.000000 0.000119 0.376450 2.724344 6.792132 139.999924
23 139.999924 0.000000 0.000119 -2.018100 6.447473 11.939205 139.999924
[Rope4_Seg09]
22 90.185791 0.000060 0.000060 -135.617828 2.228885 0.850567 90.185791
23 90.185791 0.000060 0.000060 -135.617828 2.228885 0.850567 90.185791
[L_rear_hand01]
22 101.696655 -8.392275 -7.654577 -12.874829 -36.868488 107.832764 102.329041
23 101.696655 -8.392275 -7.654577 -12.874829 -36.868488 107.832764 102.329041
[L_rear_hand02]
22 102.726799 -1.568258 5.773216 71.484581 71.816628 158.486160 102.900848
23 102.726799 -1.568258 5.773216 71.484581 71.816628 158.486160 102.900848
[L_rear_hand03]
22 104.552910 9.721220 -10.420293 -177.714203 -24.565960 -106.089035 105.519653
23 104.552910 9.721220 -10.420293 -177.714203 -24.565960 -106.089035 105.519653
